<mxfile host="Electron" agent="Mozilla/5.0 (Windows NT 10.0; Win64; x64) AppleWebKit/537.36 (KHTML, like Gecko) draw.io/26.2.2 Chrome/134.0.6998.178 Electron/35.1.2 Safari/537.36" version="26.2.2">
  <diagram name="Página-1" id="vK6KyJoAaccSjAW9-98-">
    <mxGraphModel dx="1044" dy="626" grid="1" gridSize="10" guides="1" tooltips="1" connect="1" arrows="1" fold="1" page="1" pageScale="1" pageWidth="827" pageHeight="1169" math="0" shadow="0">
      <root>
        <mxCell id="0" />
        <mxCell id="1" parent="0" />
        <mxCell id="uAA8H8zYtAHMSI-tQZz5-1" value="Usuario" style="swimlane;fontStyle=1;align=center;verticalAlign=top;childLayout=stackLayout;horizontal=1;startSize=26;horizontalStack=0;resizeParent=1;resizeParentMax=0;resizeLast=0;collapsible=1;marginBottom=0;whiteSpace=wrap;html=1;" vertex="1" parent="1">
          <mxGeometry x="50" y="120" width="160" height="144" as="geometry" />
        </mxCell>
        <mxCell id="uAA8H8zYtAHMSI-tQZz5-2" value="- id : number&lt;div&gt;- nombre : string&amp;nbsp;&lt;/div&gt;&lt;div&gt;- apellidos : strring&amp;nbsp;&lt;/div&gt;&lt;div&gt;- email : string&lt;/div&gt;" style="text;strokeColor=none;fillColor=none;align=left;verticalAlign=top;spacingLeft=4;spacingRight=4;overflow=hidden;rotatable=0;points=[[0,0.5],[1,0.5]];portConstraint=eastwest;whiteSpace=wrap;html=1;" vertex="1" parent="uAA8H8zYtAHMSI-tQZz5-1">
          <mxGeometry y="26" width="160" height="84" as="geometry" />
        </mxCell>
        <mxCell id="uAA8H8zYtAHMSI-tQZz5-3" value="" style="line;strokeWidth=1;fillColor=none;align=left;verticalAlign=middle;spacingTop=-1;spacingLeft=3;spacingRight=3;rotatable=0;labelPosition=right;points=[];portConstraint=eastwest;strokeColor=inherit;" vertex="1" parent="uAA8H8zYtAHMSI-tQZz5-1">
          <mxGeometry y="110" width="160" height="8" as="geometry" />
        </mxCell>
        <mxCell id="uAA8H8zYtAHMSI-tQZz5-4" value="gestionarPerfil()" style="text;strokeColor=none;fillColor=none;align=left;verticalAlign=top;spacingLeft=4;spacingRight=4;overflow=hidden;rotatable=0;points=[[0,0.5],[1,0.5]];portConstraint=eastwest;whiteSpace=wrap;html=1;" vertex="1" parent="uAA8H8zYtAHMSI-tQZz5-1">
          <mxGeometry y="118" width="160" height="26" as="geometry" />
        </mxCell>
        <mxCell id="uAA8H8zYtAHMSI-tQZz5-6" value="Cliente" style="swimlane;fontStyle=0;childLayout=stackLayout;horizontal=1;startSize=26;fillColor=none;horizontalStack=0;resizeParent=1;resizeParentMax=0;resizeLast=0;collapsible=1;marginBottom=0;whiteSpace=wrap;html=1;" vertex="1" parent="1">
          <mxGeometry x="450" y="100" width="210" height="100" as="geometry" />
        </mxCell>
        <mxCell id="uAA8H8zYtAHMSI-tQZz5-7" value="&amp;nbsp;- consultarDisponibilidad(Pista)&lt;div&gt;- realizarReserva(Pista)&lt;/div&gt;&lt;div&gt;- cancelarReserva(Pista)&lt;/div&gt;" style="text;strokeColor=none;fillColor=none;align=left;verticalAlign=top;spacingLeft=4;spacingRight=4;overflow=hidden;rotatable=0;points=[[0,0.5],[1,0.5]];portConstraint=eastwest;whiteSpace=wrap;html=1;" vertex="1" parent="uAA8H8zYtAHMSI-tQZz5-6">
          <mxGeometry y="26" width="210" height="74" as="geometry" />
        </mxCell>
        <mxCell id="uAA8H8zYtAHMSI-tQZz5-37" value="" style="endArrow=diamondThin;endFill=1;endSize=24;html=1;rounded=0;exitX=0.564;exitY=-0.007;exitDx=0;exitDy=0;exitPerimeter=0;" edge="1" parent="uAA8H8zYtAHMSI-tQZz5-6" source="uAA8H8zYtAHMSI-tQZz5-22">
          <mxGeometry width="160" relative="1" as="geometry">
            <mxPoint x="126.33999999999992" y="495.5999999999999" as="sourcePoint" />
            <mxPoint x="124" y="-10" as="targetPoint" />
            <Array as="points">
              <mxPoint x="260" y="460" />
              <mxPoint x="330" y="290" />
              <mxPoint x="320" y="110" />
              <mxPoint x="250" y="-50" />
            </Array>
          </mxGeometry>
        </mxCell>
        <mxCell id="uAA8H8zYtAHMSI-tQZz5-10" value="Administrador" style="swimlane;fontStyle=0;childLayout=stackLayout;horizontal=1;startSize=26;fillColor=none;horizontalStack=0;resizeParent=1;resizeParentMax=0;resizeLast=0;collapsible=1;marginBottom=0;whiteSpace=wrap;html=1;" vertex="1" parent="1">
          <mxGeometry x="460" y="300" width="210" height="110" as="geometry" />
        </mxCell>
        <mxCell id="uAA8H8zYtAHMSI-tQZz5-11" value="- cierreTemporal(Pista)" style="text;strokeColor=none;fillColor=none;align=left;verticalAlign=top;spacingLeft=4;spacingRight=4;overflow=hidden;rotatable=0;points=[[0,0.5],[1,0.5]];portConstraint=eastwest;whiteSpace=wrap;html=1;" vertex="1" parent="uAA8H8zYtAHMSI-tQZz5-10">
          <mxGeometry y="26" width="210" height="26" as="geometry" />
        </mxCell>
        <mxCell id="uAA8H8zYtAHMSI-tQZz5-12" value="- bajaCliente(Cliente)" style="text;strokeColor=none;fillColor=none;align=left;verticalAlign=top;spacingLeft=4;spacingRight=4;overflow=hidden;rotatable=0;points=[[0,0.5],[1,0.5]];portConstraint=eastwest;whiteSpace=wrap;html=1;" vertex="1" parent="uAA8H8zYtAHMSI-tQZz5-10">
          <mxGeometry y="52" width="210" height="26" as="geometry" />
        </mxCell>
        <mxCell id="uAA8H8zYtAHMSI-tQZz5-13" value="- gestionarHorario(Pista)" style="text;strokeColor=none;fillColor=none;align=left;verticalAlign=top;spacingLeft=4;spacingRight=4;overflow=hidden;rotatable=0;points=[[0,0.5],[1,0.5]];portConstraint=eastwest;whiteSpace=wrap;html=1;" vertex="1" parent="uAA8H8zYtAHMSI-tQZz5-10">
          <mxGeometry y="78" width="210" height="32" as="geometry" />
        </mxCell>
        <mxCell id="uAA8H8zYtAHMSI-tQZz5-18" value="Pista" style="swimlane;fontStyle=1;align=center;verticalAlign=top;childLayout=stackLayout;horizontal=1;startSize=26;horizontalStack=0;resizeParent=1;resizeParentMax=0;resizeLast=0;collapsible=1;marginBottom=0;whiteSpace=wrap;html=1;" vertex="1" parent="1">
          <mxGeometry x="100" y="420" width="160" height="124" as="geometry" />
        </mxCell>
        <mxCell id="uAA8H8zYtAHMSI-tQZz5-19" value="- idTipo : String&lt;div&gt;- horarioApertura : Date&lt;/div&gt;&lt;div&gt;- horarioCierre : Date&lt;/div&gt;&lt;div&gt;&lt;br&gt;&lt;/div&gt;" style="text;strokeColor=none;fillColor=none;align=left;verticalAlign=top;spacingLeft=4;spacingRight=4;overflow=hidden;rotatable=0;points=[[0,0.5],[1,0.5]];portConstraint=eastwest;whiteSpace=wrap;html=1;" vertex="1" parent="uAA8H8zYtAHMSI-tQZz5-18">
          <mxGeometry y="26" width="160" height="64" as="geometry" />
        </mxCell>
        <mxCell id="uAA8H8zYtAHMSI-tQZz5-20" value="" style="line;strokeWidth=1;fillColor=none;align=left;verticalAlign=middle;spacingTop=-1;spacingLeft=3;spacingRight=3;rotatable=0;labelPosition=right;points=[];portConstraint=eastwest;strokeColor=inherit;" vertex="1" parent="uAA8H8zYtAHMSI-tQZz5-18">
          <mxGeometry y="90" width="160" height="8" as="geometry" />
        </mxCell>
        <mxCell id="uAA8H8zYtAHMSI-tQZz5-21" value="- bloquearPista()" style="text;strokeColor=none;fillColor=none;align=left;verticalAlign=top;spacingLeft=4;spacingRight=4;overflow=hidden;rotatable=0;points=[[0,0.5],[1,0.5]];portConstraint=eastwest;whiteSpace=wrap;html=1;" vertex="1" parent="uAA8H8zYtAHMSI-tQZz5-18">
          <mxGeometry y="98" width="160" height="26" as="geometry" />
        </mxCell>
        <mxCell id="uAA8H8zYtAHMSI-tQZz5-22" value="Reserva" style="swimlane;fontStyle=0;childLayout=stackLayout;horizontal=1;startSize=26;fillColor=none;horizontalStack=0;resizeParent=1;resizeParentMax=0;resizeLast=0;collapsible=1;marginBottom=0;whiteSpace=wrap;html=1;" vertex="1" parent="1">
          <mxGeometry x="495" y="585" width="140" height="150" as="geometry" />
        </mxCell>
        <mxCell id="uAA8H8zYtAHMSI-tQZz5-23" value="- id" style="text;strokeColor=none;fillColor=none;align=left;verticalAlign=top;spacingLeft=4;spacingRight=4;overflow=hidden;rotatable=0;points=[[0,0.5],[1,0.5]];portConstraint=eastwest;whiteSpace=wrap;html=1;" vertex="1" parent="uAA8H8zYtAHMSI-tQZz5-22">
          <mxGeometry y="26" width="140" height="26" as="geometry" />
        </mxCell>
        <mxCell id="uAA8H8zYtAHMSI-tQZz5-24" value="- fechaInicio" style="text;strokeColor=none;fillColor=none;align=left;verticalAlign=top;spacingLeft=4;spacingRight=4;overflow=hidden;rotatable=0;points=[[0,0.5],[1,0.5]];portConstraint=eastwest;whiteSpace=wrap;html=1;" vertex="1" parent="uAA8H8zYtAHMSI-tQZz5-22">
          <mxGeometry y="52" width="140" height="26" as="geometry" />
        </mxCell>
        <mxCell id="uAA8H8zYtAHMSI-tQZz5-25" value="- duración&lt;div&gt;&lt;br&gt;&lt;/div&gt;&lt;div&gt;- estado&lt;/div&gt;" style="text;strokeColor=none;fillColor=none;align=left;verticalAlign=top;spacingLeft=4;spacingRight=4;overflow=hidden;rotatable=0;points=[[0,0.5],[1,0.5]];portConstraint=eastwest;whiteSpace=wrap;html=1;" vertex="1" parent="uAA8H8zYtAHMSI-tQZz5-22">
          <mxGeometry y="78" width="140" height="72" as="geometry" />
        </mxCell>
        <mxCell id="uAA8H8zYtAHMSI-tQZz5-39" style="edgeStyle=orthogonalEdgeStyle;rounded=0;orthogonalLoop=1;jettySize=auto;html=1;exitX=0.5;exitY=0;exitDx=0;exitDy=0;entryX=0.347;entryY=0.04;entryDx=0;entryDy=0;entryPerimeter=0;" edge="1" parent="1" source="uAA8H8zYtAHMSI-tQZz5-26" target="uAA8H8zYtAHMSI-tQZz5-6">
          <mxGeometry relative="1" as="geometry">
            <mxPoint x="520" y="20" as="targetPoint" />
            <Array as="points">
              <mxPoint x="380" y="760" />
              <mxPoint x="380" y="30" />
              <mxPoint x="520" y="30" />
              <mxPoint x="520" y="104" />
            </Array>
          </mxGeometry>
        </mxCell>
        <mxCell id="uAA8H8zYtAHMSI-tQZz5-26" value="Notificación" style="swimlane;fontStyle=0;childLayout=stackLayout;horizontal=1;startSize=26;fillColor=none;horizontalStack=0;resizeParent=1;resizeParentMax=0;resizeLast=0;collapsible=1;marginBottom=0;whiteSpace=wrap;html=1;" vertex="1" parent="1">
          <mxGeometry x="160" y="760" width="150" height="78" as="geometry" />
        </mxCell>
        <mxCell id="uAA8H8zYtAHMSI-tQZz5-27" value="- id" style="text;strokeColor=none;fillColor=none;align=left;verticalAlign=top;spacingLeft=4;spacingRight=4;overflow=hidden;rotatable=0;points=[[0,0.5],[1,0.5]];portConstraint=eastwest;whiteSpace=wrap;html=1;" vertex="1" parent="uAA8H8zYtAHMSI-tQZz5-26">
          <mxGeometry y="26" width="150" height="26" as="geometry" />
        </mxCell>
        <mxCell id="uAA8H8zYtAHMSI-tQZz5-28" value="- Texto" style="text;strokeColor=none;fillColor=none;align=left;verticalAlign=top;spacingLeft=4;spacingRight=4;overflow=hidden;rotatable=0;points=[[0,0.5],[1,0.5]];portConstraint=eastwest;whiteSpace=wrap;html=1;" vertex="1" parent="uAA8H8zYtAHMSI-tQZz5-26">
          <mxGeometry y="52" width="150" height="26" as="geometry" />
        </mxCell>
        <mxCell id="uAA8H8zYtAHMSI-tQZz5-31" style="edgeStyle=orthogonalEdgeStyle;rounded=0;orthogonalLoop=1;jettySize=auto;html=1;exitX=0;exitY=0.189;exitDx=0;exitDy=0;entryX=0.99;entryY=0.386;entryDx=0;entryDy=0;entryPerimeter=0;exitPerimeter=0;" edge="1" parent="1" source="uAA8H8zYtAHMSI-tQZz5-7" target="uAA8H8zYtAHMSI-tQZz5-2">
          <mxGeometry relative="1" as="geometry" />
        </mxCell>
        <mxCell id="uAA8H8zYtAHMSI-tQZz5-33" style="edgeStyle=orthogonalEdgeStyle;rounded=0;orthogonalLoop=1;jettySize=auto;html=1;exitX=0.568;exitY=-0.011;exitDx=0;exitDy=0;exitPerimeter=0;entryX=0.975;entryY=0.71;entryDx=0;entryDy=0;entryPerimeter=0;" edge="1" parent="1" source="uAA8H8zYtAHMSI-tQZz5-10" target="uAA8H8zYtAHMSI-tQZz5-2">
          <mxGeometry relative="1" as="geometry">
            <mxPoint x="604.2" y="283.6" as="sourcePoint" />
            <mxPoint x="320" y="200" as="targetPoint" />
            <Array as="points">
              <mxPoint x="321" y="289" />
              <mxPoint x="321" y="206" />
            </Array>
          </mxGeometry>
        </mxCell>
        <mxCell id="uAA8H8zYtAHMSI-tQZz5-34" style="edgeStyle=orthogonalEdgeStyle;rounded=0;orthogonalLoop=1;jettySize=auto;html=1;exitX=1;exitY=0.5;exitDx=0;exitDy=0;entryX=0;entryY=0.109;entryDx=0;entryDy=0;entryPerimeter=0;" edge="1" parent="1" source="uAA8H8zYtAHMSI-tQZz5-19" target="uAA8H8zYtAHMSI-tQZz5-10">
          <mxGeometry relative="1" as="geometry" />
        </mxCell>
        <mxCell id="uAA8H8zYtAHMSI-tQZz5-35" style="edgeStyle=orthogonalEdgeStyle;rounded=0;orthogonalLoop=1;jettySize=auto;html=1;exitX=-0.007;exitY=0.164;exitDx=0;exitDy=0;entryX=0.5;entryY=0;entryDx=0;entryDy=0;exitPerimeter=0;" edge="1" parent="1" source="uAA8H8zYtAHMSI-tQZz5-22">
          <mxGeometry relative="1" as="geometry">
            <mxPoint x="565" y="710" as="sourcePoint" />
            <mxPoint x="180" y="545" as="targetPoint" />
          </mxGeometry>
        </mxCell>
      </root>
    </mxGraphModel>
  </diagram>
</mxfile>
